<svg xmlns="http://www.w3.org/2000/svg" viewBox="0 0 900 620">
  <defs>
    <linearGradient id="bg" x1="0" y1="0" x2="1" y2="1">
      <stop offset="0" stop-color="#17132a"/>
      <stop offset="1" stop-color="#5b21b6"/>
    </linearGradient>
    <linearGradient id="coin" x1="0" y1="0" x2="1" y2="1">
      <stop offset="0" stop-color="#fde68a"/>
      <stop offset="1" stop-color="#f59e0b"/>
    </linearGradient>
  </defs>
  <rect width="900" height="620" fill="url(#bg)"/>
  <circle cx="710" cy="130" r="150" fill="#8b5cf6" opacity=".25"/>
  <circle cx="180" cy="500" r="190" fill="#22d3ee" opacity=".16"/>
  <rect x="120" y="110" width="660" height="400" rx="42" fill="#0b1020" opacity=".72"/>
  <rect x="162" y="160" width="260" height="34" rx="17" fill="#a78bfa"/>
  <rect x="162" y="220" width="576" height="18" rx="9" fill="#fff" opacity=".18"/>
  <rect x="162" y="260" width="420" height="18" rx="9" fill="#fff" opacity=".12"/>
  <g transform="translate(520 302)">
    <circle cx="0" cy="0" r="82" fill="url(#coin)"/>
    <circle cx="0" cy="0" r="52" fill="none" stroke="#fff7ed" stroke-width="14" opacity=".7"/>
    <path d="M-18 18h36M0-34v68" stroke="#7c2d12" stroke-width="16" stroke-linecap="round"/>
  </g>
  <rect x="162" y="362" width="170" height="70" rx="22" fill="#22c55e" opacity=".9"/>
  <rect x="360" y="362" width="170" height="70" rx="22" fill="#8b5cf6" opacity=".9"/>
  <rect x="558" y="362" width="170" height="70" rx="22" fill="#06b6d4" opacity=".9"/>
</svg>
